<?xml version="1.0" encoding="UTF-8" standalone="no"?>
<!DOCTYPE svg PUBLIC "-//W3C//DTD SVG 1.1//EN" "http://www.w3.org/Graphics/SVG/1.1/DTD/svg11.dtd">
<svg xmlns="http://www.w3.org/2000/svg" xmlns:xlink="http://www.w3.org/1999/xlink" version="1.1" width="187.5pt" height="75pt" viewBox="0 0 187.5 75">
<g enable-background="new">
<clipPath id="cp0">
<path transform="matrix(.24,0,0,.24,0,0)" d="M 0 0 L 783.3333 0 L 783.3333 344.66667 L 0 344.66667 Z " fill-rule="evenodd"/>
</clipPath>
<g clip-path="url(#cp0)">
<path transform="matrix(.752,0,0,.752,0,0)" d="M 0 0 L 250 0 L 250 110 L 0 110 Z " fill="#ffffff"/>
<path transform="matrix(.752,0,0,.752,0,0)" d="M 0 0 L 250 0 L 250 100 L 0 100 Z " fill="#ffffff"/>
</g>
<clipPath id="cp1">
<path transform="matrix(.24,0,0,.24,0,0)" d="M 0 0 L 783.3333 0 L 783.3333 313.3333 L 0 313.3333 Z " fill-rule="evenodd"/>
</clipPath>
<g clip-path="url(#cp1)">
<path transform="matrix(.752,0,0,.752,0,0)" d="M 0 0 L 250 0 L 250 100 L 0 100 Z " fill="#004aad"/>
</g>
<clipPath id="cp2">
<path transform="matrix(.24,0,0,.24,0,0)" d="M 0 0 L 783.3333 0 L 783.3333 313.3333 L 0 313.3333 Z " fill-rule="evenodd"/>
</clipPath>
<g clip-path="url(#cp2)">
<g id="Layer-1" data-name="P">
</g>
<symbol id="font_3_35">
<path d="M 0 .82500007 L .29500003 .82500007 C .37433339 .82500007 .43900005 .8036668 .48900003 .76100006 C .53900006 .71900007 .564 .6586667 .564 .58000007 C .564 .51933339 .54866668 .46833337 .518 .42700003 C .48800005 .38633336 .44700004 .3576667 .395 .34100003 L .679 0 L .44 0 L .18800001 .326 L .18800001 0 L 0 0 L 0 .82500007 M .18800001 .45900003 L .21000001 .45900003 C .22733335 .45900003 .242 .45933334 .254 .46 C .266 .4606667 .2796667 .46300004 .29500003 .467 C .31033335 .47100006 .32266668 .4766667 .33200003 .48400004 C .34133337 .49133338 .34933339 .50200006 .356 .51600006 C .3626667 .53000006 .36600004 .547 .36600004 .56700006 C .36600004 .587 .3626667 .60400006 .356 .61800006 C .34933339 .632 .34133337 .64266678 .33200003 .65000006 C .32266668 .6573334 .31033335 .66300007 .29500003 .66700008 C .2796667 .671 .266 .67333337 .254 .674 C .242 .6746667 .22733335 .675 .21000001 .675 L .18800001 .675 L .18800001 .45900003 Z "/>
</symbol>
<symbol id="font_3_48">
<path d="M .55600008 .24700001 L .18400002 .24700001 C .18400002 .21100001 .19566667 .18433334 .21900001 .16700001 C .24233334 .14966667 .26766668 .141 .29500003 .141 C .3236667 .141 .34633336 .14466667 .363 .15200001 C .3796667 .16000001 .3986667 .17533334 .42000003 .19800002 L .54800006 .134 C .4946667 .044666668 .40600003 0 .282 0 C .20466668 0 .13833334 .026333334 .083000008 .079 C .027666668 .13233334 0 .19633335 0 .27100004 C 0 .34566669 .027666668 .4096667 .083000008 .463 C .13833334 .51633337 .20466668 .543 .282 .543 C .36333335 .543 .42933337 .5193333 .48000003 .472 C .5313334 .42533336 .55700007 .35833336 .55700007 .27100004 C .55700007 .25900004 .5566667 .25100003 .55600008 .24700001 M .18900001 .34500004 L .384 .34500004 C .38000003 .37166668 .36933337 .392 .35200004 .40600003 C .33533336 .4206667 .31366668 .42800007 .287 .42800004 C .25766669 .42800007 .23433334 .4203334 .21700001 .40500004 C .19966668 .3896667 .19033335 .3696667 .18900001 .34500004 Z "/>
</symbol>
<symbol id="font_3_4f">
<path d="M 0 0 L 0 .86 L .17700002 .86 L .17700002 0 L 0 0 Z "/>
</symbol>
<symbol id="font_3_4c">
<path d="M .031000004 .799 C .051666667 .8196667 .07633334 .8300001 .105000007 .83000007 C .13366668 .8300001 .15833335 .8196667 .179 .799 C .19966668 .77833339 .21 .7536667 .21000001 .725 C .21 .6963334 .19966668 .6716667 .179 .651 C .15833335 .63033339 .13366668 .62 .105000007 .62 C .07633334 .62 .051666667 .63033339 .031000004 .651 C .010333334 .6716667 0 .6963334 0 .725 C 0 .7536667 .010333334 .77833339 .031000004 .799 M .013999999 .513 L .013999999 0 L .19100002 0 L .19100002 .513 L .013999999 .513 Z "/>
</symbol>
<symbol id="font_3_44">
<path d="M .072000008 .078 C .024000003 .13066668 0 .19500001 0 .27100004 C 0 .347 .024000003 .41133333 .072000008 .46400006 C .120000008 .51666668 .18100001 .543 .25500003 .543 C .32300005 .543 .37900005 .5216667 .423 .47900004 L .423 .528 L .6 .528 L .6 .015000001 L .425 .015000001 L .425 .073 L .423 .073 C .37900005 .024333334 .32300005 0 .25500003 0 C .18100001 0 .120000008 .026 .072000008 .078 M .222 .35800005 C .19933336 .33533336 .18800001 .30633334 .18800001 .27100004 C .18800001 .23566668 .199 .20666667 .22100002 .18400002 C .24300002 .16200002 .272 .15100001 .30800004 .15100001 C .34266673 .15100001 .37100003 .16233334 .393 .185 C .41566668 .20766668 .42700003 .23633336 .42700003 .27100004 C .42700003 .30633334 .41533337 .33533336 .39200003 .35800005 C .36933337 .3806667 .34133337 .39200006 .30800004 .39200003 C .27400003 .39200006 .24533333 .3806667 .222 .35800005 Z "/>
</symbol>
<symbol id="font_3_51">
<path d="M 0 0 L 0 .513 L .17700002 .513 L .17700002 .45900003 L .179 .45900003 C .22500003 .505 .27400003 .528 .326 .528 C .35133336 .528 .37633337 .52466669 .40100003 .518 C .42633335 .51133337 .45033337 .501 .47300006 .48700003 C .49633337 .47300003 .51500007 .45300005 .52900007 .42700003 C .54366669 .40166668 .551 .372 .551 .33800004 L .551 0 L .374 0 L .374 .29000003 C .37399999 .3166667 .36533336 .34 .34800003 .36 C .33133338 .38000003 .30933336 .39000003 .282 .39000003 C .25533334 .39000003 .23100002 .3796667 .20900002 .35900004 C .1876667 .33833338 .177 .31533335 .17700002 .29000003 L .17700002 0 L 0 0 Z "/>
</symbol>
<symbol id="font_3_57">
<path d="M .074 .528 L .074 .71900007 L .25100003 .71900007 L .25100003 .528 L .35900004 .528 L .35900004 .393 L .25100003 .393 L .25100003 .23 C .25100003 .18266668 .26433335 .15900001 .291 .15900001 C .29766668 .15900001 .30466668 .16033334 .312 .163 C .31933335 .16566669 .32500003 .16833334 .32900004 .171 L .335 .17500001 L .379 .032 C .341 .0106666679 .2976667 0 .24900002 0 C .21566667 0 .18699999 .005666667 .163 .017 C .139 .029000005 .120666678 .044666668 .108 .064 C .09600001 .084 .087333347 .10466667 .082 .12600002 C .07666667 .14800002 .074 .17133336 .074 .19600001 L .074 .393 L 0 .393 L 0 .528 L .074 .528 Z "/>
</symbol>
<symbol id="font_3_11">
<path d="M .11400001 .22900002 C .14600002 .22900002 .17300003 .21766669 .19500003 .19500001 C .21766667 .173 .22900002 .14600002 .229 .11400001 C .22900002 .08266667 .21766667 .055666668 .19500003 .033 C .17300003 .011 .14600002 0 .11400001 0 C .08266667 0 .055666668 .011 .033 .033 C .011 .055666668 0 .08266667 0 .11400001 C 0 .14600002 .011 .173 .033 .19500001 C .055666668 .21766669 .08266667 .22900002 .11400001 .22900002 Z "/>
</symbol>
<use xlink:href="#font_3_35" transform="matrix(46.302248,0,0,-46.302248,12.390396,55.123624)" fill="#ffffff"/>
<use xlink:href="#font_3_48" transform="matrix(46.302248,0,0,-46.302248,41.513509,55.818159)" fill="#ffffff"/>
<use xlink:href="#font_3_4f" transform="matrix(46.302248,0,0,-46.302248,68.83095,55.123624)" fill="#ffffff"/>
<use xlink:href="#font_3_4c" transform="matrix(46.302248,0,0,-46.302248,79.618808,55.123624)" fill="#ffffff"/>
<use xlink:href="#font_3_44" transform="matrix(46.302248,0,0,-46.302248,90.22144,55.818159)" fill="#ffffff"/>
<use xlink:href="#font_3_51" transform="matrix(46.302248,0,0,-46.302248,121.24297,55.123624)" fill="#ffffff"/>
<use xlink:href="#font_3_57" transform="matrix(46.302248,0,0,-46.302248,147.49539,55.818159)" fill="#ffffff"/>
<use xlink:href="#font_3_11" transform="matrix(46.302248,0,0,-46.302248,165.5063,55.818159)" fill="#ffffff"/>
</g>
</g>
</svg>
